<?xml version="1.0" encoding="utf-8"?>
<!-- Generator: Adobe Illustrator 18.1.1, SVG Export Plug-In . SVG Version: 6.00 Build 0)  -->
<svg version="1.1" id="Layer_1" xmlns="http://www.w3.org/2000/svg" xmlns:xlink="http://www.w3.org/1999/xlink" x="0px" y="0px"
	 viewBox="0 0 264.9 180" enable-background="new 0 0 264.9 180" xml:space="preserve" fill="#473267">
<g>
	<path d="M54.3,163.9c0-3.6,1-8.5,2.9-14.7c2-6.2,4.6-11.8,7.8-16.9c3.3-5.1,6.4-7.7,9.4-7.7c2.1,0,3.1,1,3.1,3.1
		c0,1.1-1.2,3.7-3.6,7.7c-2.4,4-4.9,8.6-7.3,13.7c-2.4,5.1-3.6,9.6-3.6,13.4c0,3.3,0.5,5.5,1.6,6.7c1.1,1.2,2.8,1.8,5.3,1.8
		c7.3,0,14.5-7.2,21.6-21.5l1.3,1.4c-2.6,7.8-6.5,13.9-11.6,18.3c-5.1,4.4-10.4,6.6-16,6.6c-3.5,0-6.1-1.1-8-3.3
		C55.2,170.2,54.3,167.3,54.3,163.9z M76.1,106.9c0-1.9,1.1-3.5,3.4-5c2.2-1.5,4.5-2.2,6.9-2.2c3.1,0,4.6,1.4,4.6,4.2
		c0,1.9-1,3.6-2.9,5.3c-1.9,1.6-4,2.5-6.2,2.5C78.1,111.5,76.1,110,76.1,106.9z"/>
	<path d="M89.2,161.9c0-6.4,1.8-14.8,5.5-25.4c3.6-10.6,7.9-20.7,12.7-30.1c4.8-9.5,9.7-17.7,14.6-24.7c4.9-7,8.5-10.4,10.9-10.4
		c1.3,0,2.4,1.2,3.3,3.5c0.9,2.3,1.3,4.6,1.3,6.9c0,7-3.8,17.7-11.5,32c-7.7,14.4-16.2,25.4-25.8,33.3c-1.2,5.4-1.8,10.1-1.8,14.2
		c0,7.2,2.1,10.8,6.2,10.8c3.5,0,7-2.2,10.6-6.6c3.6-4.4,6.8-9.7,9.6-15.8l2.1,1.1c-8,17.1-16.8,25.7-26.2,25.7h-0.1
		C92.9,176.2,89.2,171.4,89.2,161.9z M101.3,142.1c7.7-7.8,14.8-18,21.6-30.6c6.7-12.7,10.1-21.6,10.1-26.7c0-1.5-0.3-2.2-1-2.2
		c-1.3,0-3.9,3-7.8,9c-3.9,6-8.1,13.9-12.5,23.5C107.2,124.7,103.8,133.7,101.3,142.1z"/>
	<path d="M116.9,172.9c0-0.4,0.8-2.9,2.4-7.5c1.6-4.6,3.2-9.8,4.8-15.7c1.6-5.9,2.4-10.7,2.4-14.3c1.8-2,3.9-3,6.4-3
		s3.8,1.2,3.8,3.7c0,2.5-1.2,7.8-3.6,16c4.6-7.3,9.5-13.7,14.7-18.9c5.3-5.3,10.2-7.9,14.7-7.9c4.9,0,7.4,3.6,7.4,10.9
		c0,6.1-1.4,12.7-4.2,19.8c8-14.4,15.7-21.6,23.3-21.6c5.3,0,7.9,2.9,7.9,8.8c0,2.6-0.8,6.8-2.5,12.4s-2.5,9.3-2.5,11.2
		c0,3.2,1.4,4.8,4.1,4.8c5.8,0,12-7.4,18.8-22.3l1.7,2c-2.6,6.9-6,12.8-10.2,17.7c-4.2,4.9-8.8,7.4-13.9,7.4c-3.1,0-5.5-0.9-7.1-2.8
		c-1.6-1.9-2.4-4.3-2.4-7.3c0-2.4,0.7-6,2.1-10.6c1.4-4.6,2.1-7.8,2.1-9.5c0-3.4-1.4-5.1-4.1-5.1c-2.1,0-4.4,1.5-6.9,4.6
		c-2.5,3-6.2,8.5-11.3,16.4c-1.1,1.7-3.3,6.1-6.7,13.1c-1.5,0-3.1-0.2-4.7-0.7c-1.6-0.5-2.4-1.2-2.4-2c0-0.2,1.5-4.7,4.4-13.4
		c2.9-8.7,4.4-15.1,4.4-19c0-3.5-1.2-5.2-3.5-5.2c-4,0-9.4,4.5-16.2,13.4c-6.8,8.9-12,18.1-15.4,27.7c-1.4,0-3.1-0.3-4.9-1
		C117.8,174.2,116.9,173.6,116.9,172.9z"/>
	<path d="M209.4,160.7c0-2.5,0.4-4.6,1.3-6.4c0.8-1.7,1.8-2.9,2.8-3.5c1-0.6,2.1-1.1,3.3-1.6c1.1-0.5,1.9-0.8,2.1-1.1
		c5.9-6.5,10.5-13.3,13.7-20.3v-1.7c0-3.2,0.5-5.6,1.6-7.1c1.1-1.6,2.4-2.4,3.9-2.4c1.5,0,2.2,0.6,2.2,1.8c0,0.2-0.1,0.9-0.4,2.2
		c-0.3,1.3-0.4,2.6-0.4,3.9c0,2.8,1.2,8,3.6,15.5c2.4,7.6,3.6,13.6,3.6,18.2c0,2.5-0.3,4.8-0.8,6.9c6.9-1.2,12.8-6.5,17.6-15.8
		l1.3,1.4c-3.3,9.6-9.8,15.2-19.6,16.7c-2.9,7.7-8.8,11.6-17.9,11.6c-6.2,0-10.8-1.8-13.7-5.5C210.9,169.9,209.4,165.6,209.4,160.7z
		 M216.3,160.7c0,3.5,1,6.7,3.1,9.5c2.1,2.8,4.8,4.1,8.3,4.1c4.3,0,7.2-2.3,8.8-6.9c-3.7-0.7-7.1-2.2-10.2-4.4
		c-3.1-2.2-5.4-4.6-7-7.2C217.3,155.9,216.3,157.5,216.3,160.7z M219.9,151.4c3.4,7.4,9.2,11.9,17.3,13.7c0.4-2.4,0.6-4.6,0.6-6.6
		c0-2.6-0.2-5.4-0.7-8.3c-0.5-2.9-1.1-6.1-2-9.6s-1.4-6-1.7-7.5C228.6,141.1,224.1,147.1,219.9,151.4z"/>
</g>
<g>
	<path d="M101.8,55.2c0-6.3,2.2-13.3,6.6-21s10.1-14.3,17.1-19.9S139.4,6,146,6c4.2,0,7.7,1.1,10.5,3.4c2.8,2.3,4.2,5.2,4.2,8.8
		c0,4.6-2.6,6.9-7.8,6.9c0.5-1.9,0.8-3.8,0.8-5.6c0-6-2.7-9-8-9c-4.7,0-9.6,2.7-14.9,8.1c-5.3,5.4-9.6,11.6-12.9,18.7
		c-3.3,7.1-5,13.3-5,18.5c0,4.2,1.4,6.2,4.3,6.2c1.9,0,4.1-0.9,6.7-2.7c2.6-1.8,4.9-3.8,7-6.1c2.1-2.2,4.7-5.3,7.6-9
		c2.9-3.8,5.1-6.7,6.5-8.7l5.7-8.3c4.3,0.7,6.5,2.1,6.5,4c0,0.9-1.6,4.1-4.7,9.6c-3.1,5.5-4.7,9.8-4.7,12.6c0,1.8,0.5,3.4,1.4,4.9
		c0.9,1.4,2.3,2.2,4.2,2.2c3.1,0,7-2.2,11.7-6.6c4.7-4.4,9.3-10.6,13.9-18.6l1.6,1.6c-3.3,8.5-8,15.4-14,20.8
		c-6,5.4-12,8.1-17.8,8.1c-3.7,0-6.5-1.1-8.5-3.2c-2-2.2-2.9-4.7-2.9-7.8c0-1.3,0.2-2.8,0.5-4.6c-4.8,6.3-9.1,10.9-12.9,13.8
		c-3.8,2.9-7.5,4.4-11.3,4.4c-3.5,0-6.4-1.1-8.6-3.3C102.9,62.7,101.8,59.5,101.8,55.2z"/>
	<path d="M177.4,49.6c0-2,0.3-9,1-21c0.1-2.2,0.3-3.8,0.5-4.6c0.2-0.9,0.7-1.5,1.4-2.1c0.7-0.5,1.8-0.8,3.3-0.8c1.8,0,3,0.3,3.4,1
		c0.5,0.7,0.7,2.1,0.7,4.1c0,2.2-0.2,6.4-0.7,12.4c-0.5,6-0.7,10.5-0.7,13.4c0,6,1.2,9,3.7,9c3.5,0,7.8-3.6,12.8-10.8
		c5-7.2,9.5-15.3,13.6-24.2c0.4-12.1,3-18.1,7.7-18.1c1.7,0,3.1,0.7,4,2c1,1.3,1.4,2.7,1.4,4.1c0,1-0.4,2.3-1.3,3.9
		c-0.9,1.7-1.7,3.9-2.6,6.9c-0.9,2.9-1.4,6.5-1.4,10.6c0,8.1,2.5,12.2,7.5,12.2c4.6,0,8.8-3.9,12.6-11.8l2.1,1.6
		c-3.8,9.1-9.1,13.6-15.8,13.6c-7.7,0-12.3-5.2-13.7-15.5c-4.4,8.7-9.4,16.2-15,22.5c-5.6,6.2-10.8,9.4-15.6,9.4
		C180.3,67.2,177.4,61.4,177.4,49.6z"/>
</g>
<g>
	<path d="M3.6,41.4c0-11.3,5.4-20.6,16.3-27.8C30.8,6.3,44.2,2.7,60.1,2.7c4.9,0,11.9,0.5,21,1.6c9.1,1.1,15.7,1.6,20,1.6
		c5.5,0,10.6-0.7,15.2-2.2c-4.8,5.9-8.9,9.9-12.4,12.1c-3.4,2.2-7.1,3.3-10.9,3.3c-2.3,0-6.9-0.5-13.8-1.5l-15.4-2.2
		c-3.8,10-10.4,30.7-19.8,62.3c4.4,0.3,10.6,0.9,18.7,1.9c8.1,1,13.9,1.5,17.3,1.7c-2.2,3.4-5.3,5.4-9.4,6.2c-4,0.7-14,1.2-29.7,1.5
		l-9,32.8c-7,24.6-10.7,43.8-10.9,57.4c-5.7-0.4-9.4-2.1-11.2-4.8c-1.8-2.8-2.6-7-2.6-12.5c0-2.2,0.2-4.6,0.5-7.1
		c0.3-2.6,1-5.7,1.9-9.4l3-9.1c0.7-2.6,1.9-6.4,3.6-11.3l3.5-10.7c0.7-2.2,2.1-6.4,4.3-12.6L28,89.9c-3.4,0.3-8.8,1-16.1,2L4.6,93
		c0.5-9.8,9.5-14.9,27-15.5c8.9-26.3,16.9-47.2,23.9-62.7c-3.6-0.3-6.2-0.4-8-0.4c-12.8,0-21.6,2.1-26.3,6.3
		c-4.7,4.2-7.1,11-7.1,20.6c0,6,1,11.8,3.1,17.4C8.1,57,3.6,51.2,3.6,41.4z"/>
</g>
</svg>
